<svg xmlns="http://www.w3.org/2000/svg" id="diagram" width="310" height="310">
  <defs>
    <clipPath id="clipPath-0">
      <rect x="5.0" y="5.0" width="300.0" height="300.0"/>
    </clipPath>
    <clipPath id="clipPath-1">
      <rect x="5.0" y="5.0" width="300.0" height="300.0"/>
    </clipPath>
  </defs>
  <g id="grid-axes">
    <g id="grid" stroke="#ccc" stroke-width="1">
      <line id="line-0" x1="5.0" y1="305.0" x2="5.0" y2="5.0"/>
      <line id="line-1" x1="42.5" y1="305.0" x2="42.5" y2="5.0"/>
      <line id="line-2" x1="80.0" y1="305.0" x2="80.0" y2="5.0"/>
      <line id="line-3" x1="117.5" y1="305.0" x2="117.5" y2="5.0"/>
      <line id="line-4" x1="155.0" y1="305.0" x2="155.0" y2="5.0"/>
      <line id="line-5" x1="192.5" y1="305.0" x2="192.5" y2="5.0"/>
      <line id="line-6" x1="230.0" y1="305.0" x2="230.0" y2="5.0"/>
      <line id="line-7" x1="267.5" y1="305.0" x2="267.5" y2="5.0"/>
      <line id="line-8" x1="305.0" y1="305.0" x2="305.0" y2="5.0"/>
      <line id="line-9" x1="5.0" y1="305.0" x2="305.0" y2="305.0"/>
      <line id="line-10" x1="5.0" y1="267.5" x2="305.0" y2="267.5"/>
      <line id="line-11" x1="5.0" y1="230.0" x2="305.0" y2="230.0"/>
      <line id="line-12" x1="5.0" y1="192.5" x2="305.0" y2="192.5"/>
      <line id="line-13" x1="5.0" y1="155.0" x2="305.0" y2="155.0"/>
      <line id="line-14" x1="5.0" y1="117.5" x2="305.0" y2="117.5"/>
      <line id="line-15" x1="5.0" y1="80.0" x2="305.0" y2="80.0"/>
      <line id="line-16" x1="5.0" y1="42.5" x2="305.0" y2="42.5"/>
      <line id="line-17" x1="5.0" y1="5.0" x2="305.0" y2="5.0"/>
    </g>
    <g id="axes" stroke="black" stroke-width="2">
      <line id="line-18" x1="5.0" y1="155.0" x2="305.0" y2="155.0" stroke="black" stroke-width="2"/>
      <line id="line-19" x1="155.0" y1="305.0" x2="155.0" y2="5.0" stroke="black" stroke-width="2"/>
      <g id="g-0"/>
      <g id="g-1"/>
    </g>
  </g>
  <path id="f" stroke="blue" stroke-width="2" fill="none" d="M 72.9 -294.9 L 74.0 -282.4 L 77.0 -250.6 L 80.0 -220.0 L 83.0 -190.6 L 86.0 -162.4 L 89.0 -135.4 L 92.0 -109.6 L 95.0 -85.0 L 98.0 -61.6 L 101.0 -39.4 L 104.0 -18.4 L 107.0 1.4 L 110.0 20.0 L 113.0 37.4 L 116.0 53.6 L 119.0 68.6 L 122.0 82.4 L 125.0 95.0 L 128.0 106.4 L 131.0 116.6 L 134.0 125.6 L 137.0 133.4 L 140.0 140.0 L 143.0 145.4 L 146.0 149.6 L 149.0 152.6 L 152.0 154.4 L 155.0 155.0 L 158.0 154.4 L 161.0 152.6 L 164.0 149.6 L 167.0 145.4 L 170.0 140.0 L 173.0 133.4 L 176.0 125.6 L 179.0 116.6 L 182.0 106.4 L 185.0 95.0 L 188.0 82.4 L 191.0 68.6 L 194.0 53.6 L 197.0 37.4 L 200.0 20.0 L 203.0 1.4 L 206.0 -18.4 L 209.0 -39.4 L 212.0 -61.6 L 215.0 -85.0 L 218.0 -109.6 L 221.0 -135.4 L 224.0 -162.4 L 227.0 -190.6 L 230.0 -220.0 L 233.0 -250.6 L 236.0 -282.4" clip-path="url(#clipPath-1)"/>
  <path id="g" stroke="red" stroke-width="2" fill="none" d="M 143.8 605.0 L 146.0 580.4 L 149.0 547.4 L 152.0 515.6 L 155.0 485.0 L 158.0 455.6 L 161.0 427.4 L 164.0 400.4 L 167.0 374.6 L 170.0 350.0 L 173.0 326.6 L 176.0 304.4 L 179.0 283.4 L 182.0 263.6 L 185.0 245.0 L 188.0 227.6 L 191.0 211.4 L 194.0 196.4 L 197.0 182.6 L 200.0 170.0 L 203.0 158.6 L 206.0 148.4 L 209.0 139.4 L 212.0 131.6 L 215.0 125.0 L 218.0 119.6 L 221.0 115.4 L 224.0 112.4 L 227.0 110.6 L 230.0 110.0 L 233.0 110.6 L 236.0 112.4 L 239.0 115.4 L 242.0 119.6 L 245.0 125.0 L 248.0 131.6 L 251.0 139.4 L 254.0 148.4 L 257.0 158.6 L 260.0 170.0 L 263.0 182.6 L 266.0 196.4 L 269.0 211.4 L 272.0 227.6 L 275.0 245.0 L 278.0 263.6 L 281.0 283.4 L 284.0 304.4 L 287.0 326.6 L 290.0 350.0 L 293.0 374.6 L 296.0 400.4 L 299.0 427.4 L 302.0 455.6 L 305.0 485.0" clip-path="url(#clipPath-1)"/>
  <g transform="translate(301.0,9.0) translate(-39.6,-0.0) scale(0.9,0.9)">
    <rect x="0" y="0" width="44" height="20" stroke="black" fill="white" fill-opacity="0.9"/>
    <g id="legend-label-0" transform="translate(39.0,5.0)">
      <g id="g-2"/>
    </g>
    <line stroke="blue" x1="29" y1="5.0" x2="5" y2="5.0" stroke-width="2"/>
    <g id="legend-label-1" transform="translate(39.0,15.0)">
      <g id="g-3"/>
    </g>
    <line stroke="red" x1="29" y1="15.0" x2="5" y2="15.0" stroke-width="2"/>
  </g>
</svg>
