<svg xmlns="http://www.w3.org/2000/svg" id="diagram" width="310" height="310">
  <defs>
    <clipPath id="clipPath-0">
      <rect x="5.0" y="5.0" width="300.0" height="300.0"/>
    </clipPath>
    <clipPath id="clipPath-1">
      <rect x="5.0" y="5.0" width="300.0" height="300.0"/>
    </clipPath>
  </defs>
  <g id="grid-axes">
    <g id="grid" stroke="#ccc" stroke-width="1">
      <line id="line-0" x1="5.0" y1="305.0" x2="5.0" y2="5.0"/>
      <line id="line-1" x1="42.5" y1="305.0" x2="42.5" y2="5.0"/>
      <line id="line-2" x1="80.0" y1="305.0" x2="80.0" y2="5.0"/>
      <line id="line-3" x1="117.5" y1="305.0" x2="117.5" y2="5.0"/>
      <line id="line-4" x1="155.0" y1="305.0" x2="155.0" y2="5.0"/>
      <line id="line-5" x1="192.5" y1="305.0" x2="192.5" y2="5.0"/>
      <line id="line-6" x1="230.0" y1="305.0" x2="230.0" y2="5.0"/>
      <line id="line-7" x1="267.5" y1="305.0" x2="267.5" y2="5.0"/>
      <line id="line-8" x1="305.0" y1="305.0" x2="305.0" y2="5.0"/>
      <line id="line-9" x1="5.0" y1="305.0" x2="305.0" y2="305.0"/>
      <line id="line-10" x1="5.0" y1="267.5" x2="305.0" y2="267.5"/>
      <line id="line-11" x1="5.0" y1="230.0" x2="305.0" y2="230.0"/>
      <line id="line-12" x1="5.0" y1="192.5" x2="305.0" y2="192.5"/>
      <line id="line-13" x1="5.0" y1="155.0" x2="305.0" y2="155.0"/>
      <line id="line-14" x1="5.0" y1="117.5" x2="305.0" y2="117.5"/>
      <line id="line-15" x1="5.0" y1="80.0" x2="305.0" y2="80.0"/>
      <line id="line-16" x1="5.0" y1="42.5" x2="305.0" y2="42.5"/>
      <line id="line-17" x1="5.0" y1="5.0" x2="305.0" y2="5.0"/>
    </g>
    <g id="axes" stroke="black" stroke-width="2">
      <line id="line-18" x1="5.0" y1="155.0" x2="305.0" y2="155.0" stroke="black" stroke-width="2"/>
      <line id="line-19" x1="155.0" y1="305.0" x2="155.0" y2="5.0" stroke="black" stroke-width="2"/>
      <g id="g-0"/>
      <g id="g-1"/>
    </g>
  </g>
</svg>
